# xmcd CD database file
#
# Track frame offsets:
#	150
#	18466
#	30604
#	43784
#	58714
#	71724
#	84129
#	98349
#	112164
#	126184
#	140326
#	155845
#	169676
#	180699
#
# Disc length: 2619 seconds
#
# Revision: 0
# Processed by: cddbd v1.5PL3 Copyright (c) Steve Scherf et al.
# Submitted via: NeoAudio 9.9.9
#
DISCID=ba0a390e
DTITLE=Charles Brown - Very Best of Charles Brown
DYEAR=2000
DGENRE=Blues
TTITLE0=Driftin' Blues
TTITLE1=Trouble Blues
TTITLE2=Rockin'  Blues
TTITLE3=Baby Let Me Hold Your Hand
TTITLE4=Big Legged Woman
TTITLE5=Livin' in Misery
TTITLE6=Black Night
TTITLE7=Merry Christmas Baby
TTITLE8=It's Gettin' to be Evening
TTITLE9=Let the Sunshine In My Life
TTITLE10=Counting My Tears
TTITLE11=I Want a G.I.R.L.
TTITLE12=Let's Make Every Day a Christmas Day
TTITLE13=I'll Be Home For Christmas
EXTD=YEAR: 2000
EXTT0=
EXTT1=
EXTT2=
EXTT3=
EXTT4=
EXTT5=
EXTT6=
EXTT7=
EXTT8=
EXTT9=
EXTT10=
EXTT11=
EXTT12=
EXTT13=
PLAYORDER=
